<svg width="61" height="60" viewBox="0 0 61 60" fill="none" xmlns="http://www.w3.org/2000/svg">
<path opacity="0.3" d="M47.9098 20H13.2516C10.5098 20 8.87231 18.4206 8.87231 15.775C8.87231 15.1625 8.8793 14.5244 8.88566 13.9444C8.89074 13.4731 8.89582 13.0419 8.89582 12.6962C8.89582 10.3362 10.4278 8.75 12.7083 8.75H39.3958C40.0592 8.75 40.6431 9.08312 40.9844 9.58812C41.3256 9.08312 41.9095 8.75 42.5729 8.75C42.9345 8.75 43.5921 8.75563 44.3464 8.7625C45.3465 8.77125 46.5207 8.78187 47.3913 8.78187C50.5188 8.78187 52.1042 10.1275 52.1042 12.7819C52.1042 13.1337 52.1092 13.5706 52.1143 14.0463C52.1194 14.525 52.1251 15.0431 52.127 15.5581C52.1308 16.5087 52.0171 17.8906 50.9909 18.905C50.2545 19.6319 49.2181 20 47.9098 20ZM12.7274 16.1925C12.8011 16.215 12.9606 16.25 13.2516 16.25H47.9098C48.0775 16.25 48.1913 16.2375 48.2643 16.2244C48.2878 16.1181 48.3152 15.9175 48.3139 15.5725C48.312 15.0656 48.3063 14.5563 48.3012 14.0863C48.2967 13.595 48.2917 13.145 48.2917 12.7819C48.2917 12.6975 48.2872 12.6306 48.2815 12.58C48.1315 12.5538 47.8647 12.5312 47.3913 12.5312C46.5106 12.5312 45.3236 12.5206 44.312 12.5119C43.5724 12.5056 42.9281 12.5 42.5729 12.5C41.9095 12.5 41.3256 12.1669 40.9844 11.6619C40.6431 12.1669 40.0592 12.5 39.3958 12.5H12.7191C12.7128 12.55 12.7083 12.615 12.7083 12.6962C12.7083 13.0531 12.7032 13.4981 12.6982 13.9844C12.6918 14.5512 12.6848 15.1756 12.6848 15.775C12.6854 15.9994 12.7102 16.1281 12.7274 16.1925Z" fill="#F00000"/>
<path opacity="0.3" d="M47.9097 19.375H13.2516C10.8726 19.375 9.50769 18.0625 9.50769 15.775C9.50769 15.1644 9.51468 14.5288 9.52103 13.9513C9.52612 13.4775 9.5312 13.0437 9.5312 12.6962C9.5312 10.6787 10.7785 9.375 12.7083 9.375H39.3958C40.0973 9.375 40.6666 9.935 40.6666 10.625C40.6666 11.315 40.0973 11.875 39.3958 11.875H12.7083C12.3531 11.875 12.0729 11.875 12.0729 12.6962C12.0729 13.0512 12.0678 13.4938 12.0627 13.9775C12.0563 14.5469 12.0494 15.1731 12.0494 15.7744C12.0494 16.6131 12.2152 16.8744 13.2516 16.8744H47.9097C48.3177 16.8744 48.6278 16.8088 48.739 16.6988C48.8038 16.635 48.9525 16.3981 48.9493 15.5687C48.9474 15.0606 48.9417 14.55 48.9366 14.0781C48.9321 13.5906 48.927 13.1431 48.927 12.7819C48.927 12.0575 48.927 11.9069 47.3912 11.9069C46.5125 11.9069 45.328 11.8963 44.3177 11.8875C43.5756 11.8806 42.9293 11.875 42.5729 11.875C41.8714 11.875 41.302 11.315 41.302 10.625C41.302 9.935 41.8714 9.375 42.5729 9.375C42.9338 9.375 43.5889 9.38063 44.3406 9.3875C45.3427 9.39625 46.5188 9.40687 47.3912 9.40687C48.5064 9.40687 51.4687 9.40688 51.4687 12.7819C51.4687 13.1356 51.4738 13.5744 51.4789 14.0531C51.484 14.5306 51.4897 15.0469 51.4916 15.5606C51.4948 16.4 51.4001 17.615 50.5404 18.4644C49.9272 19.0681 49.0433 19.375 47.9097 19.375Z" fill="#F00000"/>
<path opacity="0.3" d="M47.9098 35.5825H13.2516C10.5098 35.5825 8.87231 34.0031 8.87231 31.3569C8.87231 30.7444 8.8793 30.1069 8.88566 29.5269C8.89074 29.0563 8.89582 28.6244 8.89582 28.2788C8.89582 25.9188 10.4278 24.3331 12.7083 24.3331H39.3958C40.0592 24.3331 40.6431 24.6663 40.9844 25.1713C41.3256 24.6656 41.9095 24.3331 42.5729 24.3331C42.9345 24.3331 43.5921 24.3388 44.3464 24.3456C45.3465 24.3544 46.5207 24.3644 47.3913 24.3644C50.5188 24.3644 52.1042 25.71 52.1042 28.3644C52.1042 28.7169 52.1092 29.1531 52.1143 29.6294C52.1194 30.1081 52.1251 30.6263 52.127 31.1413C52.1308 32.0919 52.0171 33.4738 50.9903 34.4875C50.2545 35.2144 49.2181 35.5825 47.9098 35.5825ZM12.7274 31.775C12.8011 31.7975 12.9606 31.8325 13.2516 31.8325H47.9098C48.0775 31.8325 48.1913 31.82 48.2643 31.8069C48.2878 31.7006 48.3152 31.5 48.3139 31.155C48.312 30.6475 48.3063 30.1388 48.3012 29.6681C48.2967 29.1775 48.2917 28.7275 48.2917 28.3638C48.2917 28.2794 48.2872 28.2125 48.2815 28.1619C48.1315 28.1356 47.8647 28.1131 47.3913 28.1131C46.5106 28.1131 45.3243 28.1025 44.312 28.0944C43.5724 28.0875 42.9275 28.0819 42.5729 28.0819C41.9095 28.0819 41.3256 27.7488 40.9844 27.2438C40.6431 27.7494 40.0592 28.0819 39.3958 28.0819H12.7191C12.7128 28.1325 12.7083 28.1969 12.7083 28.2788C12.7083 28.6356 12.7032 29.0813 12.6982 29.5669C12.6918 30.1344 12.6848 30.7581 12.6848 31.3569C12.6854 31.5813 12.7102 31.7106 12.7274 31.775Z" fill="#F00000"/>
<path opacity="0.3" d="M47.9097 34.9575H13.2516C10.8726 34.9575 9.50769 33.645 9.50769 31.3569C9.50769 30.7462 9.51468 30.1112 9.52103 29.5337C9.52612 29.06 9.5312 28.6262 9.5312 28.2787C9.5312 26.2612 10.7785 24.9581 12.7083 24.9581H39.3958C40.0973 24.9581 40.6666 25.5181 40.6666 26.2081C40.6666 26.8981 40.0973 27.4581 39.3958 27.4581H12.7083C12.3531 27.4581 12.0729 27.4581 12.0729 28.2787C12.0729 28.6337 12.0678 29.0769 12.0627 29.56C12.0563 30.1294 12.0494 30.7556 12.0494 31.3569C12.0494 32.1962 12.2152 32.4575 13.2516 32.4575H47.9097C48.3177 32.4575 48.6278 32.3919 48.739 32.2819C48.8038 32.2181 48.9525 31.9812 48.9493 31.1519C48.9474 30.6437 48.9417 30.1331 48.9366 29.6612C48.9321 29.1731 48.927 28.7256 48.927 28.3637C48.927 27.6394 48.927 27.4887 47.3912 27.4887C46.5125 27.4887 45.328 27.4781 44.3184 27.47C43.5756 27.4637 42.9287 27.4575 42.5729 27.4575C41.8714 27.4575 41.302 26.8975 41.302 26.2075C41.302 25.5175 41.8714 24.9575 42.5729 24.9575C42.9338 24.9575 43.5889 24.9631 44.3406 24.97C45.3427 24.9787 46.5188 24.9887 47.3912 24.9887C48.5064 24.9887 51.4687 24.9887 51.4687 28.3637C51.4687 28.7181 51.4738 29.1569 51.4789 29.635C51.484 30.1125 51.4897 30.6294 51.4916 31.1425C51.4948 31.9819 51.4001 33.1969 50.5404 34.0462C49.9272 34.6506 49.0427 34.9575 47.9097 34.9575Z" fill="#F00000"/>
<path opacity="0.3" d="M47.9098 51.25H13.2516C10.5098 51.25 8.87231 49.6706 8.87231 47.025C8.87231 46.4125 8.8793 45.7744 8.88566 45.1944C8.89074 44.7231 8.89582 44.2919 8.89582 43.9463C8.89582 41.5863 10.4278 40 12.7083 40H39.3958C40.0592 40 40.6431 40.3331 40.9844 40.8381C41.3256 40.3331 41.9095 40 42.5729 40C42.9345 40 43.5921 40.0056 44.3464 40.0125C45.3465 40.0212 46.5207 40.0319 47.3913 40.0319C50.5188 40.0319 52.1042 41.3775 52.1042 44.0319C52.1042 44.3837 52.1092 44.8206 52.1143 45.2962C52.1194 45.775 52.1251 46.2931 52.127 46.8081C52.1308 47.7587 52.0171 49.1406 50.9909 50.155C50.2545 50.8819 49.2181 51.25 47.9098 51.25ZM12.7274 47.4425C12.8011 47.465 12.9606 47.5 13.2516 47.5H47.9098C48.0775 47.5 48.1913 47.4875 48.2643 47.4744C48.2878 47.3681 48.3152 47.1675 48.3139 46.8225C48.312 46.3156 48.3063 45.8063 48.3012 45.3363C48.2967 44.845 48.2917 44.395 48.2917 44.0319C48.2917 43.9475 48.2872 43.8806 48.2815 43.83C48.1315 43.8037 47.8647 43.7813 47.3913 43.7813C46.5106 43.7813 45.3236 43.7706 44.312 43.7619C43.5724 43.7556 42.9281 43.75 42.5729 43.75C41.9095 43.75 41.3256 43.4169 40.9844 42.9119C40.6431 43.4169 40.0592 43.75 39.3958 43.75H12.7191C12.7128 43.8 12.7083 43.865 12.7083 43.9463C12.7083 44.3031 12.7032 44.7481 12.6982 45.2344C12.6918 45.8012 12.6848 46.4256 12.6848 47.025C12.6854 47.2494 12.7102 47.3781 12.7274 47.4425Z" fill="#F00000"/>
<path opacity="0.3" d="M47.9097 50.625H13.2516C10.8726 50.625 9.50769 49.3125 9.50769 47.025C9.50769 46.4144 9.51468 45.7787 9.52103 45.2012C9.52612 44.7275 9.5312 44.2938 9.5312 43.9463C9.5312 41.9288 10.7785 40.625 12.7083 40.625H39.3958C40.0973 40.625 40.6666 41.185 40.6666 41.875C40.6666 42.565 40.0973 43.125 39.3958 43.125H12.7083C12.3531 43.125 12.0729 43.125 12.0729 43.9463C12.0729 44.3013 12.0678 44.7437 12.0627 45.2275C12.0563 45.7969 12.0494 46.4231 12.0494 47.0244C12.0494 47.8631 12.2152 48.1244 13.2516 48.1244H47.9097C48.3177 48.1244 48.6278 48.0588 48.739 47.9488C48.8038 47.885 48.9525 47.6481 48.9493 46.8188C48.9474 46.3106 48.9417 45.8 48.9366 45.3281C48.9321 44.8406 48.927 44.3931 48.927 44.0319C48.927 43.3075 48.927 43.1569 47.3912 43.1569C46.5125 43.1569 45.328 43.1462 44.3177 43.1375C43.5756 43.1306 42.9293 43.125 42.5729 43.125C41.8714 43.125 41.302 42.565 41.302 41.875C41.302 41.185 41.8714 40.625 42.5729 40.625C42.9338 40.625 43.5889 40.6306 44.3406 40.6375C45.3427 40.6462 46.5188 40.6569 47.3912 40.6569C48.5064 40.6569 51.4687 40.6569 51.4687 44.0319C51.4687 44.3856 51.4738 44.8244 51.4789 45.3031C51.484 45.7806 51.4897 46.2969 51.4916 46.8106C51.4948 47.65 51.4001 48.865 50.5404 49.7144C49.9272 50.3181 49.0433 50.625 47.9097 50.625Z" fill="#F00000"/>
<path d="M47.9098 18.75H13.2516C11.2183 18.75 10.1432 17.7213 10.1432 15.775C10.1432 15.1662 10.1502 14.5338 10.1565 13.9575C10.1616 13.4819 10.1667 13.0456 10.1667 12.6962C10.1667 11.0081 11.1166 10 12.7084 10H39.3959C39.7473 10 40.0313 10.28 40.0313 10.625C40.0313 10.97 39.7473 11.25 39.3959 11.25H12.7084C12.1632 11.25 11.4375 11.4 11.4375 12.6962C11.4375 13.0494 11.4324 13.49 11.4274 13.9706C11.421 14.5425 11.414 15.1706 11.414 15.7744C11.414 17.0156 11.9293 17.4994 13.2516 17.4994H47.9098C48.5262 17.4994 48.9443 17.3819 49.1889 17.14C49.4628 16.87 49.588 16.37 49.5848 15.5662C49.5829 15.0575 49.5772 14.545 49.5721 14.0719C49.5676 13.5869 49.5625 13.1413 49.5625 12.7819C49.5625 11.4988 49.0199 11.2819 47.3913 11.2819C46.5138 11.2819 45.3319 11.2713 44.3235 11.2625C43.5794 11.2556 42.9307 11.25 42.573 11.25C42.2216 11.25 41.9375 10.97 41.9375 10.625C41.9375 10.28 42.2216 10 42.573 10C42.9326 10 43.5858 10.0056 44.335 10.0125C45.3389 10.0213 46.517 10.0319 47.3913 10.0319C48.5084 10.0319 50.8334 10.0319 50.8334 12.7819C50.8334 13.1375 50.8385 13.5788 50.8435 14.06C50.8486 14.5356 50.8543 15.0506 50.8563 15.5631C50.8594 16.3531 50.7755 17.3469 50.0899 18.0231C49.5943 18.5125 48.8814 18.75 47.9098 18.75Z" fill="#F00000"/>
<path d="M47.9098 34.3325H13.2516C11.2183 34.3325 10.1432 33.3038 10.1432 31.3569C10.1432 30.7488 10.1502 30.1156 10.1565 29.54C10.1616 29.0644 10.1667 28.6281 10.1667 28.2787C10.1667 26.5906 11.1166 25.5831 12.7084 25.5831H39.3959C39.7473 25.5831 40.0313 25.8631 40.0313 26.2081C40.0313 26.5531 39.7473 26.8331 39.3959 26.8331H12.7084C12.1632 26.8331 11.4375 26.9831 11.4375 28.2787C11.4375 28.6319 11.4324 29.0731 11.4274 29.5538C11.421 30.1256 11.414 30.7538 11.414 31.3575C11.414 32.5994 11.9293 33.0831 13.2516 33.0831H47.9098C48.5255 33.0831 48.9443 32.9656 49.1889 32.7238C49.4628 32.4538 49.588 31.9544 49.5848 31.1506C49.5829 30.6413 49.5772 30.1294 49.5721 29.6556C49.5676 29.1688 49.5625 28.7238 49.5625 28.3638C49.5625 27.0806 49.0199 26.8637 47.3913 26.8637C46.5138 26.8637 45.3319 26.8531 44.3242 26.845C43.5794 26.8388 42.9307 26.8325 42.573 26.8325C42.2216 26.8325 41.9375 26.5525 41.9375 26.2075C41.9375 25.8625 42.2216 25.5825 42.573 25.5825C42.9326 25.5825 43.5858 25.5881 44.335 25.595C45.3389 25.6038 46.517 25.6137 47.3913 25.6137C48.5084 25.6137 50.8334 25.6138 50.8334 28.3638C50.8334 28.72 50.8385 29.1606 50.8435 29.6419C50.8486 30.1181 50.8543 30.6331 50.8563 31.145C50.8594 31.935 50.7755 32.9288 50.0899 33.605C49.5943 34.0944 48.8814 34.3325 47.9098 34.3325Z" fill="#F00000"/>
<path d="M47.9098 50H13.2516C11.2183 50 10.1432 48.9712 10.1432 47.025C10.1432 46.4162 10.1502 45.7838 10.1565 45.2075C10.1616 44.7319 10.1667 44.2956 10.1667 43.9463C10.1667 42.2581 11.1166 41.25 12.7084 41.25H39.3959C39.7473 41.25 40.0313 41.53 40.0313 41.875C40.0313 42.22 39.7473 42.5 39.3959 42.5H12.7084C12.1632 42.5 11.4375 42.65 11.4375 43.9463C11.4375 44.2994 11.4324 44.74 11.4274 45.2206C11.421 45.7925 11.414 46.4206 11.414 47.0244C11.414 48.2656 11.9293 48.7494 13.2516 48.7494H47.9098C48.5262 48.7494 48.9443 48.6319 49.1889 48.39C49.4628 48.12 49.588 47.62 49.5848 46.8162C49.5829 46.3075 49.5772 45.795 49.5721 45.3219C49.5676 44.8369 49.5625 44.3912 49.5625 44.0319C49.5625 42.7487 49.0199 42.5319 47.3913 42.5319C46.5138 42.5319 45.3319 42.5212 44.3235 42.5125C43.5794 42.5056 42.9307 42.5 42.573 42.5C42.2216 42.5 41.9375 42.22 41.9375 41.875C41.9375 41.53 42.2216 41.25 42.573 41.25C42.9326 41.25 43.5858 41.2556 44.335 41.2625C45.3389 41.2712 46.517 41.2819 47.3913 41.2819C48.5084 41.2819 50.8334 41.2819 50.8334 44.0319C50.8334 44.3875 50.8385 44.8288 50.8435 45.31C50.8486 45.7856 50.8543 46.3006 50.8563 46.8131C50.8594 47.6031 50.7755 48.5969 50.0899 49.2731C49.5943 49.7625 48.8814 50 47.9098 50Z" fill="#F00000"/>
</svg>
