<svg width="51" height="50" viewBox="0 0 51 50" fill="none" xmlns="http://www.w3.org/2000/svg">
<g clip-path="url(#clip0_7_70)">
<path d="M25.5 4.5046C32.3088 4.5046 33.1152 4.53 35.8041 4.65028C38.2903 4.76152 39.6405 5.16879 40.5392 5.51106C41.7293 5.96458 42.5789 6.50642 43.4712 7.3812C44.3635 8.25598 44.9161 9.08888 45.3786 10.2557C45.7278 11.1367 46.1432 12.4605 46.2567 14.8979C46.3794 17.5341 46.4053 18.3247 46.4053 25.0001C46.4053 31.6754 46.3794 32.466 46.2567 35.1021C46.1432 37.5396 45.7278 38.8633 45.3786 39.7444C44.9161 40.9112 44.3635 41.7441 43.4712 42.6189C42.5789 43.4937 41.7293 44.0355 40.5392 44.4889C39.6405 44.8313 38.2903 45.2386 35.8041 45.3498C33.1156 45.4701 32.3092 45.4955 25.5 45.4955C18.6907 45.4955 17.8843 45.4701 15.1958 45.3498C12.7096 45.2386 11.3594 44.8313 10.4608 44.4889C9.27056 44.0355 8.421 43.4937 7.52872 42.6189C6.63645 41.7441 6.08377 40.9112 5.62129 39.7444C5.27207 38.8633 4.85665 37.5396 4.74318 35.1022C4.6205 32.466 4.59459 31.6754 4.59459 25.0001C4.59459 18.3247 4.6205 17.5341 4.74318 14.898C4.85665 12.4605 5.27207 11.1367 5.62129 10.2557C6.08377 9.08888 6.63645 8.25598 7.52872 7.3812C8.421 6.50642 9.27056 5.96458 10.4608 5.51106C11.3594 5.16879 12.7096 4.76152 15.1957 4.65028C17.8847 4.53 18.6911 4.5046 25.5 4.5046ZM25.5 0C18.5745 0 17.7062 0.0287789 14.9864 0.150444C12.2721 0.271911 10.4185 0.694465 8.79643 1.31252C7.11958 1.95141 5.69751 2.80624 4.27989 4.19607C2.86227 5.58589 1.99034 6.98008 1.33867 8.62405C0.708253 10.2143 0.277248 12.0316 0.153352 14.6926C0.0292533 17.359 0 18.2104 0 25.0001C0 31.7897 0.0292533 32.6411 0.153352 35.3075C0.277248 37.9685 0.708253 39.7858 1.33867 41.376C1.99034 43.0199 2.86227 44.4142 4.27989 45.804C5.69751 47.1939 7.11958 48.0487 8.79643 48.6876C10.4185 49.3056 12.2721 49.7282 14.9864 49.8497C17.7062 49.9713 18.5745 50 25.5 50C32.4254 50 33.2938 49.9713 36.0135 49.8497C38.7278 49.7282 40.5814 49.3056 42.2035 48.6876C43.8803 48.0487 45.3024 47.1939 46.72 45.804C48.1376 44.4142 49.0096 43.02 49.6612 41.376C50.2916 39.7858 50.7226 37.9685 50.8465 35.3075C50.9706 32.6411 51 31.7897 51 25.0001C51 18.2104 50.9706 17.359 50.8465 14.6926C50.7226 12.0316 50.2916 10.2143 49.6612 8.62405C49.0096 6.98008 48.1376 5.58589 46.72 4.19607C45.3024 2.80624 43.8803 1.95141 42.2035 1.31252C40.5814 0.694465 38.7278 0.271911 36.0135 0.150444C33.2938 0.0287789 32.4254 0 25.5 0ZM25.5 12.1622C18.268 12.1622 12.4053 17.9099 12.4053 25.0001C12.4053 32.0902 18.268 37.8379 25.5 37.8379C32.7319 37.8379 38.5946 32.0902 38.5946 25.0001C38.5946 17.9099 32.7319 12.1622 25.5 12.1622ZM25.5 33.3334C20.8056 33.3334 16.9999 29.6024 16.9999 25.0001C16.9999 20.3977 20.8056 16.6667 25.5 16.6667C30.1943 16.6667 34 20.3977 34 25.0001C34 29.6024 30.1943 33.3334 25.5 33.3334ZM42.1719 11.655C42.1719 13.3118 40.8019 14.655 39.1119 14.655C37.4219 14.655 36.0519 13.3118 36.0519 11.655C36.0519 9.99809 37.4219 8.65501 39.1119 8.65501C40.8019 8.65501 42.1719 9.99809 42.1719 11.655Z" fill="#F00000"/>
</g>
<defs>
<clipPath id="clip0_7_70">
<rect width="51" height="50" fill="white"/>
</clipPath>
</defs>
</svg>
